# xmcd
#
# Track frame offsets:
#	150
#	10425
#	28182
#	42867
#	58310
#	89257
#	101798
#	122586
#	140025
#	155552
#	171224
#	183822
#	195364
#	207969
#	221324
#	231377
#
# Disc length: 3281 seconds
#
# Revision: 0
# Processed by: cddbd v1.5.2PL0 Copyright (c) Steve Scherf et al.
# Submitted via: EasyCDDAExtractor 16.0.6.1
#
DISCID=e30ccf10
DTITLE=Various Artist - Smooth Jazz and The City
DYEAR=1900
DGENRE=
TTITLE0=Gene McDaniels - In A Sentimental Mood
TTITLE1=Buddy DeFranco - Autumn In New York
TTITLE2=Jimmy Dorsey With Helen O'Connell - All Of Me
TTITLE3=Nat "King" Cole - Embraceable You
TTITLE4=Benny Golson - Autumn Leaves
TTITLE5=Chet Baker Quartet feat. Russ Freeman - Time After Time
TTITLE6=Jo Jones and The Bryants - Sweet Lorraine
TTITLE7=Wynton Kelly - Sidney
TTITLE8=Sarah Vaughan - Gloomy Sunday
TTITLE9=Bill Evans Trio - Haunted Heart
TTITLE10=Mel Torme - A Foggy Day
TTITLE11=Frank Sinatra - My Funny Valentine
TTITLE12=Johnny Mathis - Call Me
TTITLE13=Nina Simone - Something To Live For
TTITLE14=Ray Conniff - Stella by Starlight
TTITLE15=Frank Sinatra - Come Fly With Me
EXTD=
EXTT0=
EXTT1=
EXTT2=
EXTT3=
EXTT4=
EXTT5=
EXTT6=
EXTT7=
EXTT8=
EXTT9=
EXTT10=
EXTT11=
EXTT12=
EXTT13=
EXTT14=
EXTT15=
PLAYORDER=
